<?xml version="1.0" encoding="UTF-8" standalone="no"?>
<!-- Generated by 'draw_to_svg.py' (by TobyLobster) -->

<svg
   xml:space="preserve"
   viewBox="0 0 205.36597 338.695"
   version="1.1"
   id="svg1"
   sodipodi:docname="paths.svg"
   width="205.366"
   height="338.69501"
   xmlns:inkscape="http://www.inkscape.org/namespaces/inkscape"
   xmlns:sodipodi="http://sodipodi.sourceforge.net/DTD/sodipodi-0.dtd"
   xmlns="http://www.w3.org/2000/svg"
   xmlns:svg="http://www.w3.org/2000/svg"><defs
   id="defs1" /><sodipodi:namedview
   id="namedview1"
   pagecolor="#ffffff"
   bordercolor="#000000"
   borderopacity="0.25"
   inkscape:showpageshadow="2"
   inkscape:pageopacity="0.0"
   inkscape:pagecheckerboard="0"
   inkscape:deskcolor="#d1d1d1" />&#10;<g
   id="draw_path0"
   transform="translate(-53.750616,-406.5337)">&#10;<path
   fill="none"
   fill-rule="evenodd"
   stroke="#b77600"
   stroke-width="10.6666"
   stroke-linejoin="bevel"
   style="stroke-dasharray:19.1999, 19.1999, 19.1999, 19.1999, 19.1999, 19.1999"
   d="m 113.5138,455.7495 c 25.0373,11.3895 70.1828,2.5146 75.1057,34.1727 6.8916,44.3414 -83.8557,45.2726 -83.6973,90.3806 0.2104,61.1641 76.2244,80.9369 114.3366,121.4033"
   id="path1" />&#10;<circle
   id="cap0_start_round"
   fill="#b77600"
   stroke="none"
   r="5.3333001"
   cx="113.5138"
   cy="455.74951" />&#10;<path
   id="cap1_end_triangle"
   fill="#b77600"
   stroke="none"
   transform="matrix(7.8727434,1.4206726,-7.5769681,41.988227,131.9565,460.9068)"
   d="M -0.02,-1 1,0 -0.02,1 Z" />&#10;<circle
   id="cap2_start_round"
   fill="#b77600"
   stroke="none"
   r="5.3333001"
   cx="150.9315"
   cy="463.83289" />&#10;<path
   id="cap3_end_triangle"
   fill="#b77600"
   stroke="none"
   transform="matrix(7.4831625,2.8285471,-15.085679,39.91045,169.5692,468.3103)"
   d="M -0.02,-1 1,0 -0.02,1 Z" />&#10;<circle
   id="cap4_start_round"
   fill="#b77600"
   stroke="none"
   r="5.3333001"
   cx="184.76759"
   cy="479.48291" />&#10;<path
   id="cap5_end_triangle"
   fill="#b77600"
   stroke="none"
   transform="matrix(-1.1953566,7.9100899,-42.18741,-6.3752752,188.7814,497.8823)"
   d="M -0.02,-1 1,0 -0.02,1 Z" />&#10;<circle
   id="cap6_start_round"
   fill="#b77600"
   stroke="none"
   r="5.3333001"
   cx="180.1871"
   cy="514.65619" />&#10;<path
   id="cap7_end_triangle"
   fill="#b77600"
   stroke="none"
   transform="matrix(-6.8226187,4.1773526,-22.279353,-36.387527,164.9317,526.2229)"
   d="M -0.02,-1 1,0 -0.02,1 Z" />&#10;<circle
   id="cap8_start_round"
   fill="#b77600"
   stroke="none"
   r="5.3333001"
   cx="148.0988"
   cy="535.45148" />&#10;<path
   id="cap9_end_triangle"
   fill="#b77600"
   stroke="none"
   transform="matrix(-6.8077608,4.2015228,-22.408261,-36.308284,131.2722,544.6919)"
   d="M -0.02,-1 1,0 -0.02,1 Z" />&#10;<circle
   id="cap10_start_round"
   fill="#b77600"
   stroke="none"
   r="5.3333001"
   cx="115.9004"
   cy="556.12512" />&#10;<path
   id="cap11_end_triangle"
   fill="#b77600"
   stroke="none"
   transform="matrix(-2.2686402,7.6714843,-40.914839,-12.09949,105.9458,572.2659)"
   d="M -0.02,-1 1,0 -0.02,1 Z" />&#10;<circle
   id="cap12_start_round"
   fill="#b77600"
   stroke="none"
   r="5.3333001"
   cx="105.837"
   cy="591.32812" />&#10;<path
   id="cap13_end_triangle"
   fill="#b77600"
   stroke="none"
   transform="matrix(3.368371,7.2562026,-38.699989,17.964758,111.6821,609.544)"
   d="M -0.02,-1 1,0 -0.02,1 Z" />&#10;<circle
   id="cap14_start_round"
   fill="#b77600"
   stroke="none"
   r="5.3333001"
   cx="122.2411"
   cy="625.5238" />&#10;<path
   id="cap15_end_triangle"
   fill="#b77600"
   stroke="none"
   transform="matrix(6.0332022,5.2534628,-28.018644,32.177279,135.7798,639.1085)"
   d="M -0.02,-1 1,0 -0.02,1 Z" />&#10;<circle
   id="cap16_start_round"
   fill="#b77600"
   stroke="none"
   r="5.3333001"
   cx="150.8772"
   cy="650.95947" />&#10;<path
   id="cap17_end_triangle"
   fill="#b77600"
   stroke="none"
   transform="matrix(6.6606738,4.4310071,-23.632186,35.523816,166.6951,661.84)"
   d="M -0.02,-1 1,0 -0.02,1 Z" />&#10;<circle
   id="cap18_start_round"
   fill="#b77600"
   stroke="none"
   r="5.3333001"
   cx="182.6846"
   cy="672.46851" />&#10;<path
   id="cap19_end_triangle"
   fill="#b77600"
   stroke="none"
   transform="matrix(6.4356629,4.7519095,-25.343676,34.32375,198.3845,683.5173)"
   d="M -0.02,-1 1,0 -0.02,1 Z" />&#10;<circle
   id="cap20_start_round"
   fill="#b77600"
   stroke="none"
   r="5.3333001"
   cx="213.1925"
   cy="695.72418" />&#10;<path
   id="cap21_end_triangle"
   fill="#b77600"
   stroke="none"
   transform="matrix(5.5697089,5.742538,-30.627061,29.7053,219.2588,701.7061)"
   d="M -0.02,-1 1,0 -0.02,1 Z" />&#10;</g>&#10;&#10;</svg>
